# xmcd CD database file
#
# Track frame offsets:
#	150
#	35195
#	68522
#	92353
#	116212
#	149540
#	169960
#	200212
#	230315
#	251343
#
# Disc length: 3624 seconds
#
# Revision: 0
# Processed by: cddbd v1.5.2PL0 Copyright (c) Steve Scherf et al.
# Submitted via: CDex 1.51
#
DISCID=8f0e260a
DTITLE=Lee Konitz, Brian Dickinson - The Glenn Gould Session
DYEAR=2005
DGENRE=Jazz
TTITLE0=Invitation
TTITLE1=A Flower is a Lovesme Thing
TTITLE2=It's You
TTITLE3=If You Could See Me Now
TTITLE4=Thingin'
TTITLE5=You Go
TTITLE6=Solar
TTITLE7=The Kindness of Strangers
TTITLE8=Waltzin'
TTITLE9=Sweet and Lovely
EXTD=YEAR: 2005
EXTT0=
EXTT1=
EXTT2=
EXTT3=
EXTT4=
EXTT5=
EXTT6=
EXTT7=
EXTT8=
EXTT9=
PLAYORDER=
